<svg data-v-4609bb5f="" version="1.1" id="rt-icon-shoppingcart" xmlns="http://www.w3.org/2000/svg" xmlns:xlink="http://www.w3.org/1999/xlink" x="0px" y="0px" width="24px" height="24px" viewBox="5 -5.4 40 40" xml:space="preserve" data-v-3a8d8d50=""><g><circle cx="19.2" cy="27.5" r="3.8"></circle> <circle cx="35.7" cy="27.5" r="3.8"></circle> <path d="M42.3,2.6H13.5l-0.9-3.5l0,0C12.5-1.6,11.9-2,11.3-2h-0.1H7.7c-0.5,0-1,0.5-0.8,1.1L7-0.3
		c0.1,0.4,0.5,0.6,0.8,0.6h1.9c0.4,0,0.7,0.3,0.8,0.6l4.8,20.2v0.1c0.2,0.6,0.6,1,1.3,1.1h0.1h21.1c0.4,0,0.7-0.3,0.8-0.6l0.2-0.6
		c0.2-0.5-0.3-1.1-0.8-1.1h-20c-0.4,0-0.7-0.3-0.8-0.6l-0.5-2h22.2c0.4,0,0.7-0.3,0.8-0.6l3.3-13.1C43.2,3.2,42.9,2.6,42.3,2.6z"></path></g></svg>