<svg data-v-4609bb5f="" version="1.1" id="rt-icon-home" xmlns="http://www.w3.org/2000/svg" xmlns:xlink="http://www.w3.org/1999/xlink" x="0px" y="0px" width="24px" height="24px" viewBox="3 -5 40 40" xml:space="preserve" data-v-3a8d8d50=""><path d="M38.7,12.4L24-1.5c-0.5-0.5-1.4-0.5-1.9,0L7.4,12.4c-0.5,0.5-0.5,1.4,0,1.9h2.4c0.5,0,0.9,0.4,0.9,0.9v15.5
	c0,0.7,0.6,1.3,1.4,1.3h22c0.8,0,1.4-0.6,1.4-1.3V15.1c0-0.5,0.4-0.9,0.9-0.9h2.4C39.2,13.7,39.2,12.9,38.7,12.4z M17.9,28.7
	c0,0.4-0.3,0.8-0.8,0.8h-2.4c-0.4,0-0.8-0.3-0.8-0.8v-7.9c0-0.4,0.3-0.8,0.8-0.8h2.4c0.4,0,0.8,0.3,0.8,0.8V28.7z M24.9,28.7
	c0,0.4-0.3,0.8-0.8,0.8h-2.4c-0.4,0-0.8-0.3-0.8-0.8V16.8c0-0.4,0.3-0.8,0.8-0.8h2.4c0.4,0,0.8,0.3,0.8,0.8V28.7z M31.9,28.7
	c0,0.4-0.3,0.8-0.8,0.8h-2.4c-0.4,0-0.8-0.3-0.8-0.8v-9c0-0.4,0.3-0.8,0.8-0.8h2.4c0.4,0,0.8,0.3,0.8,0.8V28.7z"></path></svg>