<svg data-v-4609bb5f="" version="1.1" id="rt-icon-category" xmlns="http://www.w3.org/2000/svg" xmlns:xlink="http://www.w3.org/1999/xlink" x="0px" y="0px" width="24px" height="24px" viewBox="4.8 -5 40 40" xml:space="preserve" data-v-3a8d8d50=""><g><path d="M21,0h-7.8C11.4,0,10,1.4,10,3v7.8c0,1.7,1.4,3.1,3.1,3.1H21c1.7,0,3.1-1.4,3.1-3.1V3C24,1.4,22.6,0,21,0z
		"></path> <path d="M36.5,0h-7.8C27,0,25.6,1.4,25.6,3v7.8c0,1.7,1.4,3.1,3.1,3.1h7.8c1.7,0,3.1-1.4,3.1-3.1V3
		C39.7,1.4,38.3,0,36.5,0z"></path> <path d="M20.8,16.1H13c-1.7,0-3.1,1.4-3.1,3.1V27c0,1.7,1.4,3.1,3.1,3.1h7.8c1.7,0,3.1-1.4,3.1-3.1v-7.8
		C23.9,17.4,22.5,16.1,20.8,16.1z"></path> <path d="M36.5,16.1h-7.8c-1.7,0-3.1,1.4-3.1,3.1V27c0,1.7,1.4,3.1,3.1,3.1h7.8c1.7,0,3.1-1.4,3.1-3.1v-7.8
		C39.5,17.4,38.2,16.1,36.5,16.1z"></path></g></svg>